<svg width="120" height="120" viewBox="0 0 120 120" fill="none" xmlns="http://www.w3.org/2000/svg">
<path fill-rule="evenodd" clip-rule="evenodd" d="M120 60C120 93.1371 93.1371 120 60 120C26.8629 120 0 93.1371 0 60C0 26.8629 26.8629 0 60 0C93.1371 0 120 26.8629 120 60ZM62.1501 44.2947C56.3142 46.722 44.6506 51.746 27.1594 59.3666C24.3191 60.4961 22.8312 61.6011 22.6958 62.6815C22.4669 64.5075 24.7535 65.2265 27.8673 66.2057C28.2909 66.3388 28.7297 66.4768 29.1796 66.6231C32.2431 67.6189 36.3641 68.7839 38.5064 68.8302C40.4496 68.8722 42.6186 68.071 45.0132 66.4267C61.3557 55.395 69.7918 49.8191 70.3215 49.6989C70.6951 49.6141 71.213 49.5074 71.5638 49.8192C71.9146 50.1311 71.8801 50.7216 71.843 50.88C71.6164 51.8457 62.6406 60.1905 57.9955 64.5089C56.5475 65.8552 55.5203 66.8101 55.3103 67.0282C54.84 67.5168 54.3606 67.9789 53.8998 68.4231C51.0538 71.1667 48.9195 73.2242 54.018 76.584C56.4681 78.1986 58.4286 79.5337 60.3846 80.8657C62.5207 82.3204 64.6513 83.7713 67.408 85.5784C68.1103 86.0387 68.781 86.5169 69.4343 86.9827C71.9203 88.7549 74.1537 90.3471 76.9129 90.0932C78.5161 89.9457 80.1722 88.4381 81.0133 83.9418C83.001 73.3158 86.9081 50.2923 87.811 40.8049C87.8901 39.9737 87.7906 38.9099 87.7107 38.4429C87.6308 37.9759 87.4638 37.3105 86.8568 36.818C86.1379 36.2347 85.0281 36.1117 84.5318 36.1204C82.2751 36.1602 78.8127 37.3641 62.1501 44.2947Z" fill="url(#paint0_linear_6_4)"/>
<defs>
<linearGradient id="paint0_linear_6_4" x1="60" y1="0" x2="60" y2="119.11" gradientUnits="userSpaceOnUse">
<stop stop-color="#2AABEE"/>
<stop offset="1" stop-color="#229ED9"/>
</linearGradient>
</defs>
</svg>
