<svg width="120" height="120" viewBox="0 0 120 120" fill="none" xmlns="http://www.w3.org/2000/svg">
<path d="M60 120C93.1371 120 120 93.1371 120 60C120 26.8629 93.1371 0 60 0C26.8629 0 0 26.8629 0 60C0 93.1371 26.8629 120 60 120Z" fill="url(#paint0_linear_2_7)"/>
<path fill-rule="evenodd" clip-rule="evenodd" d="M27.1594 59.3666C44.6506 51.746 56.3142 46.722 62.1501 44.2947C78.8127 37.3641 82.2751 36.1602 84.5318 36.1204C85.0281 36.1117 86.1379 36.2347 86.8568 36.818C87.4638 37.3105 87.6308 37.9759 87.7107 38.4429C87.7906 38.9099 87.8901 39.9737 87.811 40.8049C86.9081 50.2923 83.001 73.3158 81.0133 83.9418C80.1722 88.4381 78.5162 89.9457 76.9129 90.0932C73.4286 90.4139 70.7827 87.7906 67.408 85.5784C62.1272 82.1168 59.1439 79.9619 54.018 76.584C48.0941 72.6802 51.9343 70.5347 55.3103 67.0282C56.1938 66.1106 71.5458 52.1468 71.8429 50.88C71.8801 50.7216 71.9146 50.1311 71.5638 49.8192C71.2129 49.5074 70.6951 49.6141 70.3215 49.6989C69.7918 49.8191 61.3557 55.395 45.0131 66.4267C42.6186 68.071 40.4497 68.8722 38.5064 68.8302C36.3641 68.7839 32.2431 67.6189 29.1796 66.6231C25.4221 65.4017 22.4357 64.7559 22.6958 62.6816C22.8312 61.6011 24.3191 60.4961 27.1594 59.3666Z" fill="white"/>
<defs>
<linearGradient id="paint0_linear_2_7" x1="60" y1="0" x2="60" y2="119.11" gradientUnits="userSpaceOnUse">
<stop stop-color="#2AABEE"/>
<stop offset="1" stop-color="#229ED9"/>
</linearGradient>
</defs>
</svg>
